<svg xmlns="http://www.w3.org/2000/svg" width="16.278" height="15.421" viewBox="0 0 16.278 15.421">
  <g id="Group_2506" data-name="Group 2506" transform="translate(0 0)">
    <path id="Path_113" data-name="Path 113" d="M37.434,39.127c0,.8-1.466,1.351-1.708,2.071s.609,2.049.154,2.666-1.98.225-2.61.683S32.536,46.552,31.8,46.8s-1.7-.966-2.508-.966-1.789,1.206-2.515.973-.836-1.8-1.466-2.252-2.141-.058-2.618-.683.4-1.925.154-2.666-1.694-1.279-1.694-2.078,1.466-1.351,1.708-2.071-.609-2.049-.169-2.673,1.98-.225,2.61-.683.733-2.005,1.466-2.252,1.716.973,2.522.973,1.789-1.206,2.515-.973.836,1.8,1.466,2.252,2.148.058,2.61.683-.4,1.925-.154,2.666S37.434,38.328,37.434,39.127Z" transform="translate(-21.156 -31.415)" fill="#05da37"/>
    <path id="Path_115" data-name="Path 115" d="M152.909,177.382a.732.732,0,0,1-.52-.216l-1.964-1.964a.735.735,0,0,1,1.04-1.04l1.4,1.394,3.279-3.921a.736.736,0,0,1,1.129.944l-3.795,4.538a.734.734,0,0,1-.532.263Z" transform="translate(-145.834 -166.604)" fill="#fff"/>
  </g>
</svg>
