<svg width="25" height="25" xmlns="http://www.w3.org/2000/svg"><path d="M2.306 18.235l-1.298 5.439a1.166 1.166 0 0 0-.031.228c-.025.684.572 1.24 1.211 1.066a.969.969 0 0 0 .068-.022l6.625-2.345c1.17.326 2.386.491 3.619.491a12.878 12.878 0 0 0 10.522-5.29A10.81 10.81 0 0 0 25 11.546 11.824 11.824 0 0 0 14.696.182 13.356 13.356 0 0 0 12.5 0C5.886 0 0 4.893 0 11.546c0 2.43.795 4.731 2.306 6.69zM8.55 20.49l-5.204 1.843.98-4.109a1.124 1.124 0 0 0-.227-.983 8.71 8.71 0 0 1-2.146-5.694 9.474 9.474 0 0 1 6.324-8.639A11.56 11.56 0 0 1 12.5 2.12c5.816 0 10.547 4.229 10.547 9.427 0 5.198-4.732 9.427-10.547 9.427a11.65 11.65 0 0 1-3.383-.497.907.907 0 0 0-.567.013zm-.029-8.054c.207-.25.319-.565.317-.89a1.43 1.43 0 0 0-.046-.362 1.24 1.24 0 0 0-1.175-.961c-.35.002-.682.162-.903.434-.207.25-.32.565-.318.89 0 .122.016.244.047.362.127.551.61.946 1.174.962.351-.003.683-.162.904-.434zm9.766 0c.207-.25.319-.565.317-.89a1.43 1.43 0 0 0-.047-.362 1.24 1.24 0 0 0-1.174-.961c-.351.002-.682.162-.904.434-.207.25-.319.565-.317.89 0 .122.016.244.046.362.127.551.61.946 1.175.962.35-.003.682-.162.904-.434zm-4.566-.89c0 .732-.547 1.325-1.221 1.325s-1.22-.593-1.22-1.324c-.003-.325.11-.64.316-.89.222-.272.553-.432.904-.434a1.24 1.24 0 0 1 1.174.961c.031.119.047.24.047.363z" fill="#484848" fill-rule="evenodd"/></svg>