<svg xmlns="http://www.w3.org/2000/svg" xmlns:xlink="http://www.w3.org/1999/xlink" width="16" height="20" viewBox="0 0 16 20">
  <defs>
    <clipPath id="clip-path">
      <rect id="Rectangle_2674" data-name="Rectangle 2674" width="20" height="16" fill="#006aff"/>
    </clipPath>
  </defs>
  <g id="Group_3523" data-name="Group 3523" transform="translate(16) rotate(90)">
    <g id="Group_3522" data-name="Group 3522" clip-path="url(#clip-path)">
      <path id="Path_9935" data-name="Path 9935" d="M125.321,5.387v.283q0,4.723,0,9.446a1.9,1.9,0,0,1-.008.267.713.713,0,0,1-1.418-.061c-.007-.1,0-.208,0-.313q0-4.678,0-9.356V5.39a2.771,2.771,0,0,1-1.951-3.278,2.737,2.737,0,0,1,5.343.059,2.773,2.773,0,0,1-1.964,3.216M123.3,2.73a1.3,1.3,0,1,0,1.315-1.293A1.3,1.3,0,0,0,123.3,2.73" transform="translate(-114.607 0.001)" fill="#006aff"/>
      <path id="Path_9936" data-name="Path 9936" d="M245.978,13.252a2.741,2.741,0,0,1,0-5.286V7.712q0-3.382,0-6.765a.711.711,0,0,1,.966-.712.735.735,0,0,1,.46.723c0,.9,0,1.8,0,2.7q0,2.054,0,4.108c0,.129.011.209.162.262a2.718,2.718,0,0,1-.021,5.159c-.042.015-.083.033-.14.056,0,.687,0,1.378,0,2.069a1.354,1.354,0,0,1-.027.309.708.708,0,0,1-1.4-.149c-.007-.647,0-1.295,0-1.942v-.279m-.59-2.681A1.3,1.3,0,1,0,246.72,9.3a1.3,1.3,0,0,0-1.332,1.276" transform="translate(-229.419 -0.174)" fill="#006aff"/>
      <path id="Path_9937" data-name="Path 9937" d="M3.441,3.166c0,.737,0,1.474,0,2.211a.217.217,0,0,0,.179.249,2.718,2.718,0,0,1,.016,5.137.245.245,0,0,0-.2.284c.005,1.467,0,2.933,0,4.4a.693.693,0,0,1-.423.677A.669.669,0,0,1,2.252,16a.766.766,0,0,1-.241-.623c0-1.437,0-2.874.006-4.311a.276.276,0,0,0-.218-.315,2.711,2.711,0,0,1-.015-5.1A.3.3,0,0,0,2.017,5.3Q2,3.136,2.014.969A.714.714,0,1,1,3.44.955c0,.737,0,1.474,0,2.211M2.732,9.5A1.3,1.3,0,1,0,1.429,8.2,1.3,1.3,0,0,0,2.732,9.5" transform="translate(0 -0.194)" fill="#006aff"/>
    </g>
  </g>
</svg>
