<svg id="Group_527" data-name="Group 527" xmlns="http://www.w3.org/2000/svg" width="22.176" height="22.404" viewBox="0 0 22.176 22.404">
  <rect id="Rectangle_354" data-name="Rectangle 354" width="22.175" height="22.404" rx="5" fill="#006aff"/>
  <g id="Group_525" data-name="Group 525" transform="translate(1.859 2.853)">
    <g id="Group_524" data-name="Group 524" transform="translate(2.096 0)">
      <path id="Path_2601" data-name="Path 2601" d="M701.9,1866.18h0a.719.719,0,0,0-.719.719l-.007,5.683a.719.719,0,0,0,.719.72h0a.719.719,0,0,0,.719-.718l.007-5.683A.72.72,0,0,0,701.9,1866.18Z" transform="translate(-699.5 -1859.411)" fill="#fff"/>
      <path id="Path_2602" data-name="Path 2602" d="M861.083,1866.18h0a.72.72,0,0,0-.719.72l.007,5.683a.719.719,0,0,0,.719.718h0a.719.719,0,0,0,.719-.72l-.007-5.683A.719.719,0,0,0,861.083,1866.18Z" transform="translate(-848.947 -1859.411)" fill="#fff"/>
      <path id="Path_2603" data-name="Path 2603" d="M689.942,1768.336l-3.015-2.205v-2.49a.688.688,0,1,0-1.374,0v1.485l-2.19-1.6a.661.661,0,0,0-.784,0L676,1768.285a.741.741,0,0,0-.175,1,.668.668,0,0,0,.956.183l6.187-4.479,6.188,4.526a.663.663,0,0,0,.393.13.677.677,0,0,0,.564-.308A.741.741,0,0,0,689.942,1768.336Z" transform="translate(-675.703 -1762.921)" fill="#fff"/>
    </g>
    <path id="Path_2604" data-name="Path 2604" d="M662.376,1932.477a.284.284,0,0,0-.411-.016.518.518,0,0,1-.359.146.54.54,0,0,1-.529-.549.579.579,0,0,1,.006-.081.3.3,0,0,0-.246-.343.293.293,0,0,0-.33.255,1.211,1.211,0,0,0-.012.169,1.169,1.169,0,0,0,.354.843h0c-3.7,4.818-11.852,4.78-15.5-.016h0a1.17,1.17,0,0,0,.338-.827,1.211,1.211,0,0,0-.012-.169.293.293,0,0,0-.33-.255.3.3,0,0,0-.245.343.579.579,0,0,1,.006.081.54.54,0,0,1-.529.549.518.518,0,0,1-.359-.146.284.284,0,0,0-.411.016.31.31,0,0,0,.016.426,1.086,1.086,0,0,0,.755.307,1.074,1.074,0,0,0,.349-.058h0c5.246,6.45,11.156,6.38,16.355.008h0a1.074,1.074,0,0,0,.325.05,1.086,1.086,0,0,0,.755-.307A.31.31,0,0,0,662.376,1932.477Z" transform="translate(-643.728 -1921.266)" fill="#fff"/>
  </g>
</svg>
