<svg width="25" height="25" xmlns="http://www.w3.org/2000/svg"><path d="M22.37 19.701a10.04 10.04 0 0 0-5.852-6.114 5.404 5.404 0 0 0 1.799-4.02A5.423 5.423 0 0 0 12.9 4.15a5.423 5.423 0 0 0-5.417 5.417c0 1.151.369 2.272 1.054 3.198.22.298.47.574.746.822a10.04 10.04 0 0 0-5.853 6.114A11.598 11.598 0 0 1 1.233 12.9c0-6.433 5.234-11.667 11.667-11.667 6.44.008 11.66 5.227 11.667 11.667a11.583 11.583 0 0 1-2.197 6.801zM12.9.4C6.008.4.4 6.008.4 12.9a12.422 12.422 0 0 0 2.864 7.953.036.036 0 0 1 .005.01.034.034 0 0 0 .005.01A12.497 12.497 0 0 0 10.69 25.2c.074.014.148.028.222.04.132.02.264.038.396.055l.085.01c.057.009.114.016.171.022.151.015.302.028.453.038l.085.006.127.01a11.89 11.89 0 0 0 1.341 0c.048-.002.094-.006.141-.01l.07-.006c.152-.01.303-.022.453-.037a6.518 6.518 0 0 0 .29-.037 11.267 11.267 0 0 0 .585-.09l.063-.012a12.549 12.549 0 0 0 .665-.14 12.108 12.108 0 0 0 1.288-.385c.059-.021.117-.044.176-.066a12.67 12.67 0 0 0 .505-.202 12.5 12.5 0 0 0 4.725-3.531.036.036 0 0 1 .004-.01A12.45 12.45 0 0 0 25.4 12.9C25.4 6.008 19.793.4 12.9.4zm5.065 23.008a.252.252 0 0 0-.018.01 11.992 11.992 0 0 1-1.72.663h-.002a10.593 10.593 0 0 1-.606.162 8.074 8.074 0 0 1-.678.14 7.61 7.61 0 0 1-.206.038c-.122.019-.245.034-.368.05a8.72 8.72 0 0 0-.058.008c-.059.008-.117.016-.176.022-.106.01-.212.02-.318.027l-.105.007a2.84 2.84 0 0 0-.047.004l-.036.003a11.856 11.856 0 0 1-1.442.001l-.094-.008c-.142-.01-.283-.02-.423-.034-.06-.006-.118-.014-.176-.022a8.725 8.725 0 0 0-.151-.02 9.564 9.564 0 0 1-.276-.038c-.089-.014-.176-.031-.264-.048a9.716 9.716 0 0 1-.66-.14 10.377 10.377 0 0 1-1.327-.406 11.307 11.307 0 0 1-.456-.182l-.052-.022a11.659 11.659 0 0 1-.471-.214 11.723 11.723 0 0 1-3.78-2.914 9.197 9.197 0 0 1 6.019-6.308c.058.035.118.067.178.1a3.43 3.43 0 0 1 .105.06c.123.065.25.126.378.182.1.044.201.08.303.118a1.521 1.521 0 0 1 .06.022 5.385 5.385 0 0 0 1.802.314 5.38 5.38 0 0 0 1.896-.349 4.728 4.728 0 0 0 .803-.375c.043-.024.086-.047.128-.073a9.199 9.199 0 0 1 6.018 6.308 11.735 11.735 0 0 1-3.78 2.914zM8.317 9.567A4.589 4.589 0 0 1 12.9 4.983a4.589 4.589 0 0 1 4.583 4.584 4.58 4.58 0 0 1-2.662 4.156 4.648 4.648 0 0 1-1.921.411 4.648 4.648 0 0 1-1.983-.442 4.582 4.582 0 0 1-2.6-4.126zm2.747 5.09h.004" stroke="#484848" stroke-width=".8" fill="#484848" fill-rule="evenodd"/></svg>