<svg width="25" height="25" xmlns="http://www.w3.org/2000/svg"><path d="M24.707 23.194l-6.953-7.017a9.943 9.943 0 0 0 2.18-6.216A9.96 9.96 0 0 0 9.968.003C4.46.003 0 4.468 0 9.968s4.46 9.958 9.967 9.958A9.934 9.934 0 0 0 16.25 17.7l6.907 6.971a1.063 1.063 0 0 0 .775.332c.274.002.538-.103.736-.293.43-.41.442-1.087.039-1.517zm-20.274-7.7a7.777 7.777 0 0 0 5.534 2.29 7.777 7.777 0 0 0 5.534-2.29 7.747 7.747 0 0 0 2.292-5.526A7.77 7.77 0 0 0 15.5 4.442 7.777 7.777 0 0 0 9.967 2.15c-2.09 0-4.056.813-5.534 2.29a7.747 7.747 0 0 0-2.291 5.527 7.77 7.77 0 0 0 2.291 5.526z" fill="#484848" fill-rule="evenodd"/></svg>