<svg width="20" height="20" xmlns="http://www.w3.org/2000/svg"><path d="M1.407 14.86L0 20l5.276-1.38c1.463.793 3.1 1.21 4.764 1.21 5.488 0 9.96-4.45 9.96-9.91 0-2.65-1.035-5.14-2.915-7.01A9.89 9.89 0 0 0 10.04 0C4.557-.004.103 4.427.08 9.91a9.9 9.9 0 0 0 1.327 4.95zM5.819 17l-.301-.18-3.136.82.834-3.04-.2-.31a8.234 8.234 0 0 1-1.267-4.38 8.275 8.275 0 0 1 8.281-8.24 8.215 8.215 0 0 1 5.85 2.42 8.163 8.163 0 0 1 2.422 5.867 8.237 8.237 0 0 1-8.262 8.193c-1.487 0-2.944-.4-4.22-1.15zm7.074-5.816a1.096 1.096 0 0 0-.009-.004c-.229-.08-.389-.12-.558.114a14.97 14.97 0 0 1-.788.976c-.141.17-.292.19-.543.06a1.387 1.387 0 0 0-.019-.009c-.27-.124-1.058-.4-1.981-1.221-.736-.653-1.226-1.453-1.382-1.712a32.212 32.212 0 0 1-.005-.008c-.114-.202-.057-.326.038-.434a1.52 1.52 0 0 1 .073-.076c.027-.027.053-.055.078-.084.094-.105.2-.237.293-.346.103-.119.155-.216.217-.341l.035-.069a.47.47 0 0 0-.02-.43 81.817 81.817 0 0 1-.791-1.901c-.17-.364-.344-.366-.482-.367l-.054-.002h-.482a.799.799 0 0 0-.141.013.934.934 0 0 0-.527.302c-.225.253-.86.853-.86 2.065s.883 2.385 1.012 2.557a26.4 26.4 0 0 1 .023.032c.178.258 1.218 1.782 2.83 2.918.439.312.908.578 1.401.793a12.348 12.348 0 0 0 1.417.52c.593.19 1.136.16 1.568.1.064-.01.126-.024.187-.043.509-.149 1.29-.61 1.483-1.113a3.328 3.328 0 0 0 .11-.356c.107-.427.096-.76.04-.848-.062-.096-.184-.146-.38-.236a7.608 7.608 0 0 1-.093-.044c-.248-.119-1.447-.705-1.69-.806z" fill="#006aff" fill-rule="evenodd"/></svg>